<?xml version="1.0" standalone="no"?>
<!DOCTYPE svg PUBLIC "-//W3C//DTD SVG 20010904//EN"
 "http://www.w3.org/TR/2001/REC-SVG-20010904/DTD/svg10.dtd">
<svg version="1.0" xmlns="http://www.w3.org/2000/svg"
 width="450.000000pt" height="220.000000pt" viewBox="0 0 450.000000 220.000000"
 preserveAspectRatio="xMidYMid meet">
<metadata>
Created by potrace 1.10, written by Peter Selinger 2001-2011
</metadata>
<g transform="translate(0.000000,220.000000) scale(0.100000,-0.100000)"
fill="#ffffff" stroke="none">
<path d="M597 1979 c-9 -5 -24 -23 -32 -39 -39 -76 1 -170 73 -170 31 0 41 6
60 36 29 45 34 84 16 119 -30 57 -75 78 -117 54z m96 -60 c28 -55 -1 -129 -51
-129 -47 1 -67 25 -65 78 1 25 6 48 12 50 5 2 8 9 5 16 -6 17 36 35 61 26 11
-4 28 -22 38 -41z"/>
<path d="M761 1883 c-18 -36 -52 -96 -76 -132 -23 -37 -44 -75 -46 -86 -3 -12
-15 -22 -34 -25 -50 -11 -72 -28 -94 -74 -27 -54 -45 -158 -37 -209 6 -37 6
-38 -21 -35 l-28 3 -2 -75 c-1 -41 0 -69 3 -62 3 6 17 12 31 12 21 0 24 -4 19
-22 -3 -13 -6 -218 -6 -456 l0 -433 -25 -25 c-23 -23 -25 -33 -25 -111 0 -75
2 -84 15 -73 8 7 24 10 35 7 11 -3 18 -2 15 2 -2 5 6 13 18 20 30 16 67 72 77
115 4 19 8 245 9 502 1 257 4 470 7 473 3 3 15 6 26 6 18 0 20 7 22 53 1 50 0
52 -26 52 l-28 0 0 76 c0 71 2 77 31 106 23 23 29 37 25 54 -4 13 -3 42 0 64
6 37 9 41 33 38 l26 -3 2 -412 c2 -439 3 -442 52 -487 16 -14 31 -18 65 -14
25 3 49 1 55 -5 8 -8 11 -8 11 1 0 7 -4 12 -8 12 -4 0 -5 28 -1 63 7 72 4 81
-20 67 -39 -20 -41 -2 -41 397 0 324 2 383 14 383 24 0 46 -12 40 -21 -3 -5 0
-9 5 -9 7 0 11 29 11 75 l0 75 -35 0 -35 0 0 90 c0 111 -13 116 -59 23z m39
-14 c0 -13 -4 -18 -12 -13 -10 6 -10 4 -2 -7 6 -8 10 -32 10 -55 -1 -22 4 -41
9 -41 50 0 55 -3 55 -37 0 -28 -5 -37 -30 -49 -21 -11 -30 -12 -34 -3 -3 6 -3
1 -1 -11 3 -12 1 -24 -5 -28 -6 -3 -7 -12 -3 -18 5 -7 8 -173 8 -370 l0 -359
28 -22 c30 -24 42 -72 25 -93 -19 -24 -65 -15 -92 18 -14 17 -26 38 -27 47 -6
118 -6 625 1 650 6 22 5 30 -2 26 -7 -4 -9 19 -6 70 2 42 0 76 -4 76 -5 0 -8
6 -8 14 0 9 -7 12 -20 9 -28 -7 -25 7 16 74 36 59 48 80 72 121 16 27 22 28
22 1z m-175 -295 c0 -27 -7 -47 -23 -64 -27 -29 -49 -66 -34 -56 9 5 5 -112
-4 -123 -6 -7 22 -29 42 -33 14 -2 19 -12 18 -38 0 -24 -5 -35 -15 -35 -44 0
-44 -6 -43 -490 1 -426 -4 -531 -25 -545 -5 -3 -12 -16 -16 -28 -5 -19 -56
-52 -78 -52 -3 0 -5 27 -6 59 -1 53 2 62 25 80 15 12 24 21 21 21 -3 0 -1 17
4 38 4 20 9 227 9 459 1 429 -2 463 -36 463 -7 0 -14 6 -17 14 -7 18 3 57 13
51 4 -2 14 3 23 13 11 12 17 45 21 112 5 103 12 133 29 123 6 -3 7 -1 3 6 -12
18 37 63 59 54 13 -5 16 -3 10 7 -5 8 -3 11 6 8 9 -3 14 -20 14 -44z"/>
<path d="M1142 1633 c-21 -4 -21 -6 15 -48 35 -41 71 -61 59 -32 -2 6 -10 29
-17 50 -7 20 -17 36 -23 36 -6 -1 -21 -4 -34 -6z"/>
<path d="M1228 1590 c27 -54 42 -64 42 -26 0 45 -18 76 -43 76 l-24 0 25 -50z"/>
<path d="M660 1550 c0 -55 -3 -70 -15 -70 -22 0 -35 -33 -35 -89 0 -48 2 -51
25 -51 25 0 25 -1 25 -84 0 -83 0 -83 -25 -78 l-25 4 -2 -367 c-2 -202 -1
-368 2 -370 3 -2 25 -5 49 -6 l45 -4 -2 70 c-2 95 -4 102 -11 25 -6 -64 -6
-65 -36 -65 l-30 0 -1 160 c-1 105 2 165 10 174 8 12 8 13 -2 7 -10 -6 -12 27
-10 173 l3 180 23 -2 c23 -1 23 -1 22 -157 -1 -85 4 -173 9 -195 6 -22 11 -78
12 -125 1 -77 2 -80 9 -38 10 55 6 122 -9 198 -8 38 -10 167 -6 418 6 324 5
362 -9 362 -13 0 -16 -13 -16 -70z m8 -148 c3 -50 2 -51 -20 -43 -23 9 -26 24
-13 79 10 40 30 18 33 -36z"/>
<path d="M1285 1603 c3 -10 9 -30 12 -45 3 -15 12 -33 19 -39 23 -19 19 64 -4
84 -24 22 -36 22 -27 0z"/>
<path d="M1070 1585 c-19 -20 -20 -25 -8 -25 9 0 30 -11 46 -25 55 -46 69 -25
27 38 -14 20 -29 37 -34 37 -4 0 -18 -11 -31 -25z"/>
<path d="M1352 1530 c2 -38 15 -63 29 -54 15 9 10 41 -11 65 l-20 24 2 -35z"/>
<path d="M1018 1525 c-24 -33 -22 -45 6 -45 14 0 36 -4 50 -9 18 -7 27 -6 36
4 8 10 2 20 -27 44 -21 17 -40 31 -43 31 -3 0 -13 -11 -22 -25z m57 -22 c18
-14 18 -15 2 -9 -10 3 -25 6 -33 6 -9 0 -12 5 -9 10 8 14 16 12 40 -7z"/>
<path d="M976 1446 c-3 -13 -9 -32 -12 -41 -6 -14 -2 -15 31 -9 21 4 48 7 58
8 31 2 31 23 0 39 -57 29 -70 30 -77 3z m48 -14 c2 -4 -4 -9 -15 -9 -10 -1
-19 2 -19 8 0 11 27 12 34 1z"/>
<path d="M1396 1431 c-18 -20 -19 -80 -2 -126 7 -18 6 -18 -4 -2 -16 25 -66
22 -81 -4 -18 -35 -22 -130 -7 -173 17 -52 40 -66 67 -42 19 17 21 17 21 3 0
-20 6 -21 23 -6 9 8 11 60 10 187 -1 96 -4 176 -6 178 -2 2 -12 -5 -21 -15z
m-16 -227 c0 -59 -3 -76 -16 -81 -24 -9 -34 15 -34 79 0 38 5 62 16 72 26 26
34 9 34 -70z"/>
<path d="M2450 1438 c0 -8 7 -15 15 -15 18 0 15 19 -3 25 -7 2 -12 -3 -12 -10z"/>
<path d="M3297 1443 c-13 -13 -7 -21 13 -16 11 3 17 9 14 14 -6 11 -18 12 -27
2z"/>
<path d="M3020 1430 c0 -5 5 -10 10 -10 6 0 10 5 10 10 0 6 -4 10 -10 10 -5 0
-10 -4 -10 -10z"/>
<path d="M1474 1405 c-6 -25 9 -55 28 -55 15 0 26 44 16 63 -13 25 -37 21 -44
-8z"/>
<path d="M1960 1351 c0 -44 4 -71 11 -71 6 0 8 8 5 18 -3 9 -2 23 3 31 7 11
13 5 26 -25 10 -21 19 -34 22 -27 2 6 -3 28 -11 48 -14 33 -14 39 -1 58 21 31
18 43 -5 22 -11 -10 -20 -24 -20 -32 0 -7 -5 -13 -11 -13 -7 0 -9 10 -5 24 3
14 2 28 -4 31 -6 4 -10 -20 -10 -64z"/>
<path d="M2050 1405 c-3 -11 -2 -45 1 -75 4 -34 6 -43 7 -22 2 25 6 32 23 32
18 0 21 -5 17 -30 -3 -16 -1 -30 4 -30 4 0 8 29 8 65 0 36 -4 65 -9 65 -4 0
-6 -11 -3 -25 3 -20 0 -25 -16 -25 -16 0 -21 7 -24 33 -2 23 -4 27 -8 12z"/>
<path d="M2146 1404 c-19 -18 -22 -94 -4 -112 18 -18 46 -14 58 7 16 31 12 86
-8 104 -23 21 -27 21 -46 1z m39 -59 c0 -29 -4 -40 -15 -40 -11 0 -16 13 -18
43 -3 38 -1 43 15 40 14 -2 18 -13 18 -43z"/>
<path d="M2356 1404 c-24 -23 -29 -59 -14 -91 15 -32 45 -37 62 -11 15 24 -1
36 -18 13 -13 -18 -14 -18 -25 3 -6 12 -9 33 -5 47 6 26 29 34 37 13 2 -7 7
-10 11 -6 9 8 -11 48 -24 48 -5 0 -16 -7 -24 -16z"/>
<path d="M2569 1373 l-1 -48 -15 43 c-8 23 -19 42 -24 42 -5 0 -9 -32 -9 -71
0 -47 3 -68 11 -64 6 5 8 23 4 49 -8 46 4 42 21 -7 6 -17 16 -33 22 -35 15 -5
17 124 2 133 -6 4 -10 -13 -11 -42z"/>
<path d="M2628 1409 c-13 -7 -18 -23 -18 -57 0 -58 10 -75 41 -70 19 2 25 10
27 36 2 23 -1 32 -12 32 -8 0 -18 -4 -21 -10 -3 -5 1 -10 9 -10 21 0 21 -19 0
-27 -28 -11 -45 43 -24 77 8 12 13 13 30 2 16 -10 20 -10 20 1 0 13 -19 37
-29 37 -4 0 -14 -5 -23 -11z"/>
<path d="M2785 1410 c-3 -5 -3 -27 1 -47 8 -44 -6 -37 -22 10 -19 56 -34 44
-34 -27 0 -72 19 -94 21 -23 l1 42 15 -42 c8 -24 19 -43 24 -43 5 0 9 32 9 70
0 69 -3 80 -15 60z"/>
<path d="M2836 1404 c-17 -17 -22 -90 -7 -112 4 -8 19 -12 32 -10 19 2 25 10
27 36 2 24 -1 32 -12 32 -9 0 -16 -4 -16 -10 0 -5 5 -10 10 -10 16 0 12 -20
-6 -27 -28 -11 -45 43 -24 77 8 12 13 13 30 2 16 -10 20 -10 20 1 0 14 -19 37
-31 37 -4 0 -15 -7 -23 -16z"/>
<path d="M2910 1351 c0 -39 5 -73 10 -76 6 -4 10 8 10 30 0 29 3 36 18 33 12
-3 16 -12 14 -30 -1 -15 2 -29 8 -33 6 -4 10 20 10 70 0 48 -4 74 -10 70 -6
-3 -7 -17 -4 -31 5 -20 2 -24 -15 -24 -17 0 -21 6 -21 30 0 17 -4 30 -10 30
-6 0 -10 -30 -10 -69z"/>
<path d="M3191 1410 c-9 -55 -10 -130 -1 -135 6 -4 10 8 10 30 0 29 3 36 17
33 11 -2 17 -13 18 -28 0 -14 3 -26 8 -27 4 -2 7 -1 7 2 0 3 0 35 0 71 0 44
-3 63 -11 58 -6 -3 -8 -17 -5 -30 5 -19 2 -24 -13 -24 -15 0 -21 8 -24 33 -2
17 -5 25 -6 17z"/>
<path d="M3369 1418 c-5 -29 -4 -140 2 -144 5 -3 9 16 10 43 l0 48 17 -42 c9
-24 20 -43 24 -43 4 0 9 25 10 55 0 30 1 60 2 65 1 6 -3 9 -8 8 -6 -2 -9 -21
-8 -43 2 -40 2 -40 -12 -15 -9 14 -15 33 -16 42 0 14 -18 37 -21 26z"/>
<path d="M3467 1402 c-20 -22 -22 -81 -4 -106 8 -11 23 -17 38 -14 19 2 25 10
27 36 3 27 0 32 -17 32 -12 0 -21 -4 -21 -10 0 -5 5 -10 10 -10 6 0 10 -7 10
-16 0 -9 -7 -14 -17 -12 -26 5 -31 76 -7 85 10 4 19 2 22 -5 4 -14 22 -16 22
-3 0 12 -28 41 -39 41 -4 0 -15 -8 -24 -18z"/>
<path d="M3735 1410 c-3 -5 -3 -25 1 -45 8 -47 -2 -44 -22 5 -9 22 -19 40 -23
40 -3 0 -7 -29 -8 -65 -2 -38 1 -65 7 -65 6 0 10 19 11 43 l0 42 17 -42 c9
-24 20 -43 24 -43 4 0 8 32 8 70 0 69 -3 80 -15 60z"/>
<path d="M2241 1388 c-16 -43 -23 -108 -12 -108 6 0 11 7 11 15 0 8 9 15 20
15 11 0 20 -7 20 -15 0 -8 5 -15 11 -15 11 0 10 9 -12 93 -11 42 -25 48 -38
15z m29 -45 c0 -7 -4 -13 -10 -13 -5 0 -10 12 -10 28 0 21 2 24 10 12 5 -8 10
-21 10 -27z"/>
<path d="M2429 1383 c-23 -61 19 -134 55 -97 16 15 22 78 10 108 -10 27 -53
20 -65 -11z m61 -34 c0 -28 -11 -49 -26 -49 -20 0 -29 47 -14 78 11 26 12 26
26 7 8 -10 14 -27 14 -36z"/>
<path d="M3000 1345 l0 -65 36 0 c24 0 34 4 31 13 -2 6 -14 11 -25 9 -17 -3
-22 2 -22 19 0 16 5 20 20 16 13 -3 20 0 20 8 0 8 -10 15 -22 17 -32 4 -29 22
5 26 36 4 25 22 -14 22 l-29 0 0 -65z"/>
<path d="M3100 1400 c0 -5 7 -10 15 -10 12 0 15 -13 15 -55 0 -30 5 -55 10
-55 6 0 10 25 10 55 0 30 5 55 10 55 6 0 10 5 10 10 0 6 -16 10 -35 10 -19 0
-35 -4 -35 -10z"/>
<path d="M3282 1398 c-18 -18 -14 -83 6 -108 l19 -23 21 21 c24 24 29 70 12
103 -12 21 -40 25 -58 7z m46 -50 c-2 -30 -8 -43 -18 -43 -10 0 -16 13 -18 43
-3 37 -1 42 18 42 19 0 21 -5 18 -42z"/>
<path d="M3570 1400 c0 -5 7 -10 16 -10 13 0 15 -10 12 -55 -2 -42 0 -55 11
-55 10 0 12 13 9 55 -4 41 -1 55 9 55 7 0 13 5 13 10 0 6 -16 10 -35 10 -19 0
-35 -4 -35 -10z"/>
<path d="M3650 1345 c0 -37 4 -65 10 -65 6 0 10 28 10 65 0 37 -4 65 -10 65
-6 0 -10 -28 -10 -65z"/>
<path d="M957 1363 c-4 -3 -7 -24 -7 -46 0 -37 1 -39 18 -25 9 9 32 23 50 32
47 24 42 46 -11 46 -24 0 -47 -3 -50 -7z"/>
<path d="M1204 1319 c-12 -4 -27 -21 -34 -39 -14 -34 -17 -122 -6 -158 10 -32
54 -53 83 -39 24 11 27 16 17 41 -5 12 -9 13 -25 3 -14 -9 -21 -9 -30 0 -17
17 -17 126 0 147 13 15 15 15 32 0 17 -15 19 -15 25 0 14 36 -20 61 -62 45z"/>
<path d="M1597 1315 c-43 -31 -51 -151 -14 -206 29 -43 51 -47 81 -15 39 42
43 167 7 210 -16 19 -55 25 -74 11z m59 -95 c6 -50 -8 -100 -30 -100 -25 0
-36 93 -16 146 9 24 13 26 25 13 8 -8 17 -35 21 -59z"/>
<path d="M1710 1304 c0 -29 25 -32 40 -5 13 26 14 26 -15 27 -20 2 -25 -3 -25
-22z"/>
<path d="M1450 1295 c0 -18 4 -23 16 -18 13 5 15 -7 13 -93 -2 -94 -1 -99 20
-102 20 -3 21 0 21 117 l0 121 -35 0 c-31 0 -35 -3 -35 -25z"/>
<path d="M985 1276 c-22 -6 -39 -15 -37 -19 1 -4 2 -21 2 -38 l0 -30 45 38
c24 21 44 44 45 51 0 14 -3 14 -55 -2z"/>
<path d="M3024 1259 c-3 -6 -1 -16 5 -22 8 -8 11 -5 11 11 0 24 -5 28 -16 11z"/>
<path d="M2245 1220 c3 -11 2 -20 -3 -20 -12 0 -32 -46 -32 -74 0 -13 9 -34
19 -47 25 -31 52 -17 65 33 7 30 5 41 -13 66 -11 17 -21 37 -21 46 0 9 -5 16
-11 16 -6 0 -8 -9 -4 -20z m23 -52 c15 -15 15 -43 1 -69 -15 -29 -39 -7 -39
36 0 44 14 57 38 33z"/>
<path d="M4187 1233 c-12 -12 -7 -19 14 -20 17 -2 18 1 9 13 -14 16 -14 16
-23 7z"/>
<path d="M1006 1197 c-47 -29 -54 -39 -47 -66 9 -32 18 -28 54 21 38 54 36 72
-7 45z"/>
<path d="M1950 1185 c0 -8 6 -14 13 -12 8 1 12 -14 12 -53 0 -33 4 -53 10 -50
6 3 10 27 10 54 0 30 5 51 13 54 25 8 11 22 -23 22 -24 0 -35 -5 -35 -15z"/>
<path d="M2030 1130 c0 -73 16 -97 22 -32 l3 37 17 -37 c9 -21 22 -38 27 -38
15 0 14 6 -5 35 -13 20 -14 28 -4 40 7 8 10 25 6 40 -5 20 -13 25 -36 25 l-30
0 0 -70z m50 30 c0 -11 -7 -20 -15 -20 -8 0 -15 9 -15 20 0 11 7 20 15 20 8 0
15 -9 15 -20z"/>
<path d="M2120 1141 c0 -60 16 -89 43 -78 17 6 39 85 26 93 -15 9 -10 27 6 20
9 -3 15 0 15 9 0 8 -9 15 -20 15 -16 0 -19 -8 -22 -55 -2 -30 -7 -55 -13 -55
-5 0 -11 25 -13 55 -4 74 -22 71 -22 -4z"/>
<path d="M2290 1191 c0 -6 5 -13 10 -16 6 -3 10 1 10 9 0 9 -4 16 -10 16 -5 0
-10 -4 -10 -9z"/>
<path d="M2320 1129 c0 -46 4 -68 10 -64 6 4 8 21 4 42 -8 45 12 37 24 -9 4
-18 13 -33 20 -36 9 -3 12 16 12 67 0 41 -4 71 -10 71 -5 0 -10 -19 -11 -42
l0 -43 -17 43 c-9 23 -20 42 -24 42 -4 0 -8 -32 -8 -71z"/>
<path d="M2420 1185 c-18 -21 -16 -93 3 -112 25 -26 57 -8 57 33 0 23 -5 34
-14 34 -23 0 -28 -18 -9 -29 15 -9 16 -12 3 -20 -34 -23 -57 52 -24 80 13 10
17 10 24 -1 12 -19 22 -8 14 14 -8 20 -38 21 -54 1z"/>
<path d="M2528 1165 c-2 -19 -2 -51 0 -70 4 -31 7 -35 30 -30 33 6 42 21 42
71 0 45 -14 64 -46 64 -17 0 -23 -7 -26 -35z m52 -6 c14 -26 5 -69 -15 -69
-18 0 -20 26 -2 34 10 5 10 7 0 12 -15 7 -18 44 -3 44 5 0 14 -9 20 -21z"/>
<path d="M2626 1135 c-19 -75 -19 -75 -7 -75 5 0 11 9 14 20 7 26 34 26 42 -1
14 -43 17 -7 5 56 -7 39 -17 65 -25 65 -7 0 -20 -28 -29 -65z m33 -19 c-14
-16 -20 0 -13 30 l8 29 6 -25 c4 -14 3 -29 -1 -34z"/>
<path d="M2701 1135 c3 -89 19 -94 19 -6 0 42 -4 71 -10 71 -7 0 -10 -26 -9
-65z"/>
<path d="M2770 1130 c0 -40 4 -70 10 -70 6 0 10 13 10 29 0 16 6 31 15 34 19
8 27 -7 19 -38 -4 -15 -2 -25 5 -25 7 0 11 25 11 70 0 39 -4 70 -10 70 -5 0
-8 -12 -7 -27 1 -19 -3 -29 -15 -31 -14 -3 -18 3 -18 27 0 17 -4 31 -10 31 -6
0 -10 -30 -10 -70z"/>
<path d="M2872 1188 c-17 -17 -15 -103 3 -118 8 -7 15 -21 15 -32 0 -10 5 -16
10 -13 6 4 8 11 4 16 -3 6 1 18 9 27 24 27 29 60 17 97 -12 36 -35 46 -58 23z
m42 -24 c10 -27 7 -61 -8 -73 -27 -23 -50 51 -24 77 16 16 25 15 32 -4z"/>
<path d="M2962 1188 c-18 -18 -15 -88 4 -109 21 -23 54 -8 54 24 -1 20 -2 21
-14 5 -22 -29 -36 -21 -36 21 0 46 15 61 35 35 15 -20 20 -8 9 20 -7 19 -35
21 -52 4z"/>
<path d="M3070 1130 c0 -40 4 -70 10 -70 6 0 10 13 10 29 0 41 17 48 25 11 7
-30 25 -51 25 -29 0 7 -5 28 -12 46 -10 27 -10 38 0 53 14 23 15 30 4 30 -5 0
-16 -15 -25 -32 l-16 -33 0 33 c-1 17 -5 32 -11 32 -6 0 -10 -30 -10 -70z"/>
<path d="M3160 1130 c0 -40 4 -70 10 -70 6 0 10 14 10 30 0 20 5 30 15 30 10
0 15 -10 15 -30 0 -16 5 -30 10 -30 6 0 10 30 10 70 0 40 -4 70 -10 70 -5 0
-10 -13 -10 -30 0 -20 -5 -30 -15 -30 -10 0 -15 10 -15 30 0 17 -4 30 -10 30
-6 0 -10 -30 -10 -70z"/>
<path d="M3250 1174 c-14 -36 -12 -66 6 -92 30 -43 63 -16 66 52 2 62 -52 93
-72 40z m51 -17 c7 -16 7 -31 -1 -51 -9 -23 -13 -26 -25 -16 -15 13 -21 71 -8
83 12 13 23 7 34 -16z"/>
<path d="M3346 1136 c-19 -77 -19 -76 -6 -76 6 0 10 9 10 20 0 28 36 26 45 -2
7 -22 8 -22 11 -3 5 27 -19 118 -33 122 -6 2 -18 -25 -27 -61z m34 -1 c0 -14
-4 -25 -10 -25 -5 0 -10 11 -10 25 0 14 5 25 10 25 6 0 10 -11 10 -25z"/>
<path d="M3450 1130 c0 -40 4 -70 10 -70 6 0 10 13 10 29 0 16 6 31 15 35 12
4 15 -3 15 -29 0 -19 5 -35 10 -35 6 0 10 30 10 70 0 40 -4 70 -10 70 -5 0
-10 -13 -10 -30 0 -20 -5 -30 -15 -30 -10 0 -15 10 -15 30 0 17 -4 30 -10 30
-6 0 -10 -30 -10 -70z"/>
<path d="M3550 1181 c-22 -42 -6 -121 25 -121 8 0 21 10 29 22 30 42 14 118
-24 118 -11 0 -24 -9 -30 -19z m48 -43 c2 -22 -3 -39 -12 -47 -13 -11 -17 -9
-26 15 -8 20 -8 35 0 52 14 33 34 22 38 -20z"/>
<path d="M3641 1181 c-17 -30 -13 -76 8 -102 16 -20 21 -21 35 -10 9 7 16 23
16 35 -1 20 -1 20 -15 2 -19 -25 -35 -12 -35 29 0 41 18 55 37 29 14 -18 14
-18 11 6 -4 32 -42 40 -57 11z"/>
<path d="M3745 1190 c-6 -9 1 -14 18 -11 4 0 7 -26 7 -59 0 -33 4 -60 10 -60
6 0 10 27 10 60 0 48 3 60 16 60 8 0 12 5 9 10 -3 6 -19 10 -35 10 -16 0 -32
-4 -35 -10z"/>
<path d="M3831 1144 c-1 -65 12 -90 42 -78 18 6 31 39 23 53 -3 5 1 14 9 21 8
7 15 23 15 36 0 19 -5 23 -22 21 -20 -3 -22 -9 -19 -54 1 -30 -2 -54 -9 -58
-18 -11 -24 2 -31 63 l-6 57 -2 -61z m74 26 c3 -5 1 -10 -4 -10 -6 0 -11 5
-11 10 0 6 2 10 4 10 3 0 8 -4 11 -10z"/>
<path d="M3960 1130 c0 -45 4 -70 11 -70 8 0 9 13 5 41 -8 48 7 45 24 -6 18
-55 30 -41 30 35 0 40 -4 70 -10 70 -5 0 -10 -19 -11 -42 l0 -43 -17 43 c-9
23 -20 42 -24 42 -4 0 -8 -31 -8 -70z"/>
<path d="M4047 1133 c3 -83 4 -88 12 -43 7 43 38 50 33 8 -1 -14 2 -29 8 -33
6 -4 10 16 10 54 0 34 0 64 1 68 0 4 -4 9 -10 11 -5 2 -9 -9 -8 -24 1 -20 -3
-29 -15 -32 -14 -3 -18 3 -18 27 0 17 -3 31 -7 31 -5 0 -7 -30 -6 -67z"/>
<path d="M4130 1130 c0 -40 4 -70 10 -70 6 0 10 30 10 70 0 40 -4 70 -10 70
-6 0 -10 -30 -10 -70z"/>
<path d="M4169 1193 c-2 -4 -2 -31 0 -86 1 -40 3 -43 28 -41 35 1 43 24 9 24
-32 0 -35 27 -3 32 12 2 20 8 17 13 -3 6 -13 9 -22 8 -12 -2 -18 4 -18 18 0
15 5 19 22 17 11 -2 23 2 25 8 2 7 -8 11 -27 10 -16 -1 -30 -2 -31 -3z"/>
<path d="M4245 1139 c-5 -40 -3 -65 4 -72 8 -8 11 1 11 33 0 47 9 47 25 -3 5
-18 14 -31 19 -30 13 4 20 133 7 133 -5 0 -11 -21 -13 -47 l-3 -48 -13 42
c-19 62 -29 60 -37 -8z"/>
<path d="M1005 1100 c-26 -27 -27 -32 -15 -55 16 -29 26 -25 35 15 4 16 11 32
16 35 11 8 12 35 1 35 -5 0 -21 -13 -37 -30z"/>
<path d="M1040 1035 c-17 -28 -19 -38 -10 -55 12 -22 22 -20 26 3 1 7 5 29 9
50 9 46 3 47 -25 2z"/>
<path d="M2644 1046 c-8 -22 3 -33 18 -18 9 9 9 15 0 24 -9 9 -13 7 -18 -6z"/>
<path d="M3570 1035 c0 -8 5 -15 10 -15 6 0 10 7 10 15 0 8 -4 15 -10 15 -5 0
-10 -7 -10 -15z"/>
<path d="M3850 1035 c0 -8 5 -15 10 -15 6 0 10 7 10 15 0 8 -4 15 -10 15 -5 0
-10 -7 -10 -15z"/>
<path d="M1080 974 c-9 -26 -9 -39 -1 -47 14 -14 17 -9 24 41 6 51 -7 55 -23
6z"/>
<path d="M1126 939 c-9 -45 -8 -49 9 -49 11 0 15 11 15 40 0 48 -15 53 -24 9z"/>
<path d="M1177 934 c-11 -11 -8 -42 4 -49 16 -10 19 -2 11 29 -4 15 -11 24
-15 20z"/>
<path d="M710 751 c0 -6 5 -13 10 -16 6 -4 8 -10 6 -14 -3 -3 4 -7 14 -7 18 0
18 2 -2 23 -24 25 -28 27 -28 14z"/>
<path d="M820 711 c-22 -4 -30 -9 -23 -14 15 -9 63 2 63 14 0 5 -1 8 -2 8 -2
-1 -19 -4 -38 -8z"/>
<path d="M735 690 c-3 -5 -1 -10 4 -10 6 0 11 5 11 10 0 6 -2 10 -4 10 -3 0
-8 -4 -11 -10z"/>
</g>
</svg>
